<svg width="200mm" height="200mm" version="1.1" viewBox="0 0 200 200" xmlns="http://www.w3.org/2000/svg">
 <g transform="translate(-2856.7 85.495)">
  <path d="m2860.3-26.002-2.2067 7.8242c-0.7057 2.6995-1.3248 4.3172-1.3248 6.7158 0 23.626 43.01 53.095 97.227 66.401 48.804 11.977 89.29 6.3931 96.887-12.071l3.7069-8.8576-44.735 9.5319-127.39-39.939z" fill="#e6e6e6" fill-opacity=".99648" style="paint-order:markers fill stroke"/>
  <g fill="#fff">
   <path d="m2908.5-45.49a101.7 41.295 16.603 0 0-49.084 25.002 101.7 41.295 16.603 0 0 98.167 66.871 101.7 41.295 16.603 0 0 98.167-18.688 101.7 41.295 16.603 0 0-98.167-66.871 101.7 41.295 16.603 0 0-49.083-6.3143zm4.1134 24.211 16.656 4.0877 19.346 10.641v-5.8936l17.85 4.3807 0.035 11.351 18.117 9.9652v-16.861l17.936 4.4018v27.693l-16.656-4.0872-19.364-10.613 0.019 5.8646-17.937-4.4018v-11.283l-18.065-9.9v16.749l-17.937-4.4018z" fill-opacity=".99648" stroke-width="4.6571" style="paint-order:markers fill stroke"/>
   <g>
    <path d="m2862.4 13.793c15.942 9.7093 16.403 13.158 17.736 27.972 2.2065 24.523 24.488 66.972 24.488 66.972s-38.869-63.154-42.224-94.944z" style="paint-order:markers fill stroke"/>
    <path d="m3052.5-0.2173c-14.736-9.0762-12.219-12.648-11.857-26.88 0.4188-20.184-14.556-55.336-14.556-55.336s30.87 53.352 26.412 82.216z" style="paint-order:markers fill stroke"/>
    <path d="m2923.5 49.728c9.0385 5.5047 9.2994 7.46 10.055 15.859 1.2511 13.903 13.884 37.97 13.884 37.97s-22.037-35.805-23.939-53.829z" style="paint-order:markers fill stroke"/>
    <path d="m2897.5 39.91c11.557 7.0384 11.89 9.5386 12.857 20.278 1.5996 17.777 17.752 48.549 17.752 48.549s-28.177-45.781-30.608-68.827z" style="paint-order:markers fill stroke"/>
    <path d="m3025.8-18.358c-11.111-6.5478-9.2127-9.1246-8.9398-19.392 0.3158-14.561-10.974-39.921-10.974-39.921s23.276 38.49 19.914 59.313z" style="paint-order:markers fill stroke"/>
    <path d="m3003.5-29.527c-9.2618-4.9643-7.6796-6.9179-7.4521-14.702 0.2632-11.04-9.1483-30.266-9.1483-30.266s19.402 29.181 16.6 44.969z" style="paint-order:markers fill stroke"/>
   </g>
  </g>
 </g>
</svg>
