<?xml version="1.0" encoding="UTF-8" standalone="no"?>
<svg
   width="200mm"
   height="200mm"
   version="1.1"
   viewBox="0 0 200 200"
   id="svg24"
   sodipodi:docname="dice.svg"
   inkscape:version="1.2 (dc2aedaf03, 2022-05-15)"
   xmlns:inkscape="http://www.inkscape.org/namespaces/inkscape"
   xmlns:sodipodi="http://sodipodi.sourceforge.net/DTD/sodipodi-0.dtd"
   xmlns="http://www.w3.org/2000/svg"
   xmlns:svg="http://www.w3.org/2000/svg">
  <defs
     id="defs28" />
  <sodipodi:namedview
     id="namedview26"
     pagecolor="#505050"
     bordercolor="#eeeeee"
     borderopacity="1"
     inkscape:showpageshadow="0"
     inkscape:pageopacity="0"
     inkscape:pagecheckerboard="0"
     inkscape:deskcolor="#505050"
     inkscape:document-units="mm"
     showgrid="false"
     inkscape:zoom="0.77548253"
     inkscape:cx="300.45809"
     inkscape:cy="451.33189"
     inkscape:window-width="1920"
     inkscape:window-height="1009"
     inkscape:window-x="1912"
     inkscape:window-y="-8"
     inkscape:window-maximized="1"
     inkscape:current-layer="svg24" />
  <g
     transform="translate(644.7 86.108)"
     id="g18">
    <rect
       x="-644.7"
       y="-86.108"
       width="200"
       height="200"
       fill="none"
       style="paint-order:markers fill stroke"
       id="rect2" />
    <g
       fill="#fff"
       id="g16">
      <path
         d="m-481.79-68.272c1.8344 0.65062 3.4116 1.6795 4.6969 2.9945l25.755 27.897c0.94499 1.037 1.7741 3.1235 1.7179 3.7654l-43.881-4.9749c-1.8289-0.1189-3.5374-0.76484-4.6383-2.284l-25.28-33.503c2.0935-0.66161 4.0001-0.68137 6.3488-0.369l33.362 5.9525c0.66722 0.12923 1.3076 0.30426 1.919 0.52112zm-1.3786 3.7179a6.2557 2.7071 30.951 0 0-4.5982 0.15866 6.2557 2.7071 30.951 0 0 3.9722 5.5388 6.2557 2.7071 30.951 0 0 6.7573 0.89558 6.2557 2.7071 30.951 0 0-3.9721-5.5388 6.2557 2.7071 30.951 0 0-2.1591-1.0542zm-9.0457 14.35a6.2557 2.7071 30.951 0 0-4.5982 0.15867 6.2557 2.7071 30.951 0 0 3.9728 5.539 6.2557 2.7071 30.951 0 0 6.757 0.89624 6.2557 2.7071 30.951 0 0-3.9728-5.539 6.2557 2.7071 30.951 0 0-2.1589-1.0549z"
         style="paint-order:markers fill stroke"
         id="path4" />
      <path
         d="m-449.63-29.381c0.0721 0.39197 0.0577 0.77523-0.2643 1.3637l-23.809 36.819c-1.8558 2.6456-4.3946 4.1873-7.2748 4.5122l-38.052 0.89448c-1.8781-0.0356-3.1521-0.08127-4.4733-0.73666l25.79-46.05c1.1426-1.6289 2.8867-2.1479 4.5651-2.0441zm-11.295 3.7927a3.4713 6.0375 58.58 0 0-5.8146 1.1041 3.4713 6.0375 58.58 0 0-3.3423 6.1097 3.4713 6.0375 58.58 0 0 6.9617-0.18478 3.4713 6.0375 58.58 0 0 3.3423-6.1097 3.4713 6.0375 58.58 0 0-1.1471-0.91933zm-25.527-0.72479a3.5176 6.2557 58.58 0 0-5.9995 1.1853 3.5176 6.2557 58.58 0 0-3.5047 6.2633 3.5176 6.2557 58.58 0 0 7.1726-0.25953 3.5176 6.2557 58.58 0 0 3.5045-6.2626 3.5176 6.2557 58.58 0 0-1.1729-0.92645zm4.6431 13.364a3.7323 6.0375 58.58 0 0-5.6253 1.0746 3.7323 6.0375 58.58 0 0-3.2069 6.3328 3.7323 6.0375 58.58 0 0 7.0983 0.037333 3.7323 6.0375 58.58 0 0 3.2066-6.3322 3.7323 6.0375 58.58 0 0-1.4727-1.1125zm5.0766 12.391a3.4441 5.9516 58.58 0 0-5.7384 1.0771 3.4441 5.9516 58.58 0 0-3.2834 6.042 3.4441 5.9516 58.58 0 0 6.8747-0.16317 3.4441 5.9516 58.58 0 0 3.2834-6.042 3.4441 5.9516 58.58 0 0-1.1363-0.91393zm-25.796 0.56164a3.4713 6.0375 58.58 0 0-5.8142 1.105 3.4713 6.0375 58.58 0 0-3.3429 6.1094 3.4713 6.0375 58.58 0 0 6.962-0.18543 3.4713 6.0375 58.58 0 0 3.3429-6.1094 3.4713 6.0375 58.58 0 0-1.1477-0.91957z"
         style="paint-order:markers fill stroke"
         id="path6" />
      <path
         d="m-526.89-72.091 24.526 32.591c1.7001 2.4255 1.7096 3.6849 0.40312 6.1242l-24.8 44.788c-0.69119-0.48792-1.1435-1.3726-1.648-2.1702l-18.461-32.602c-1.6616-3.0052-0.87543-5.4892 0.0694-7.9396l18.249-38.686c0.39805-0.76122 1.1355-1.6952 1.6627-2.1051zm1.2612 10.866a3.7383 6.2557 5.2261 0 0-0.50132-0.10432 3.7383 6.2557 5.2261 0 0-4.2925 5.8887 3.7383 6.2557 5.2261 0 0 3.1529 6.5703 3.7383 6.2557 5.2261 0 0 4.2925-5.8887 3.7383 6.2557 5.2261 0 0-2.6515-6.4661zm-6.1689 13.442a3.6602 6.2557 5.2261 0 0-0.49114-0.10356 3.6602 6.2557 5.2261 0 0-4.2147 5.8967 3.6602 6.2557 5.2261 0 0 3.075 6.5623 3.6602 6.2557 5.2261 0 0 4.2151-5.8958 3.6602 6.2557 5.2261 0 0-2.5844-6.4597zm20.716 7.6693a3.779 6.2557 5.2261 0 0-0.50777-0.10497 3.779 6.2557 5.2261 0 0-4.3325 5.8855 3.779 6.2557 5.2261 0 0 3.1935 6.5738 3.779 6.2557 5.2261 0 0 4.3325-5.8855 3.779 6.2557 5.2261 0 0-2.6857-6.4687zm-26.828 5.116a3.432 6.2557 5.2261 0 0-0.46005-0.10053 3.432 6.2557 5.2261 0 0-3.9875 5.9175 3.432 6.2557 5.2261 0 0 2.8476 6.5422 3.432 6.2557 5.2261 0 0 3.9882-5.9173 3.432 6.2557 5.2261 0 0-2.3882-6.4419zm19.958 8.3483a3.6602 6.2557 5.2261 0 0-0.49113-0.10356 3.6602 6.2557 5.2261 0 0-4.2147 5.8967 3.6602 6.2557 5.2261 0 0 3.0748 6.563 3.6602 6.2557 5.2261 0 0 4.2147-5.8967 3.6602 6.2557 5.2261 0 0-2.5837-6.4595zm-6.8782 12.97a3.432 6.2557 5.2261 0 0-0.46008-0.10064 3.432 6.2557 5.2261 0 0-3.9879 5.9166 3.432 6.2557 5.2261 0 0 2.8482 6.5424 3.432 6.2557 5.2261 0 0 3.9875-5.9175 3.432 6.2557 5.2261 0 0-2.3878-6.441z"
         style="paint-order:markers fill stroke"
         id="path8" />
      <path
         d="m-551.79-3.999c0.44597 0.096634 1.2499 0.82231 1.6663 1.4442l25.187 40.467c1.6317 3.2483 2.0701 8.7279 0.70944 12.068l-20.558 39.955c-1.1421 2.0666-2.3682 3.2597-3.8207 4.4297l-34.775-46.487c-1.0047-1.9999-0.51263-4.1673 0.58208-5.9816zm-0.20166 15.185a7.296 4.447 86.273 0 0-0.30447 0.0022 7.296 4.447 86.273 0 0-3.9636 7.5703 7.296 4.447 86.273 0 0 4.9122 6.9915 7.296 4.447 86.273 0 0 3.9635-7.5703 7.296 4.447 86.273 0 0-4.6077-6.994zm-16.044 25.63a7.574 4.6639 86.273 0 0-0.31922 0.0022 7.574 4.6639 86.273 0 0-4.1619 7.861 7.574 4.6639 86.273 0 0 5.1465 7.2544 7.574 4.6639 86.273 0 0 4.1619-7.861 7.574 4.6639 86.273 0 0-4.8273-7.2576zm32.05 0.04664a7.296 4.447 86.273 0 0-0.30368 0.0022 7.296 4.447 86.273 0 0-3.9635 7.5695 7.296 4.447 86.273 0 0 4.9114 6.9915 7.296 4.447 86.273 0 0 3.9635-7.5695 7.296 4.447 86.273 0 0-4.6077-6.994zm-15.215 0.12076a7.296 4.447 86.273 0 0-0.30366 0.0022 7.296 4.447 86.273 0 0-3.9635 7.5695 7.296 4.447 86.273 0 0 4.9122 6.9915 7.296 4.447 86.273 0 0 3.9635-7.5695 7.296 4.447 86.273 0 0-4.6085-6.9948zm1.0474 26.311a7.296 4.447 86.273 0 0-0.30367 0.0022 7.296 4.447 86.273 0 0-3.9635 7.5695 7.296 4.447 86.273 0 0 4.9114 6.9915 7.296 4.447 86.273 0 0 3.9635-7.5695 7.296 4.447 86.273 0 0-4.6077-6.9948z"
         style="paint-order:markers fill stroke"
         id="path10" />
      <path
         d="m-592.89 48.684c2.675-0.05356 4.0913 0.89591 5.8363 3.2264l34.098 45.084c-1.1676 0.57613-2.3703 1.0358-4.3382 1.0833l-38.626-2.4279c-3.5901-0.15039-9.5406-3.8824-12.524-7.5793l-27.846-33.328c-0.58475-0.76715-1.3945-2.4495-1.3838-3.0974l44.231-2.9365c0.18998-0.0132 0.37435-0.02088 0.5527-0.02446zm-8.3418 19.281a7.574 3.5142 34.383 0 0-2.2883 0.88985 7.574 3.5142 34.383 0 0 4.2656 7.1777 7.574 3.5142 34.383 0 0 8.2357 1.3764 7.574 3.5142 34.383 0 0-4.2664-7.1776 7.574 3.5142 34.383 0 0-5.9465-2.2663z"
         style="paint-order:markers fill stroke"
         id="path12" />
      <path
         d="m-560.28-7.8238c1.5636-0.0054 3.2832 0.38012 4.037 0.92496l-31.415 46.922c-1.6238 2.2069-3.0701 3.3084-5.2265 3.619l-45.136 3.281c-0.16295-1.7822-0.15608-2.978 1.4344-5.2232l25.194-34.962c2.378-3.1133 8.2066-6.5385 10.935-7.3523l39.52-7.1825c0.21377-0.01742 0.43381-0.02619 0.6572-0.02694zm-13.161 9.1957a3.0919 7.1822 54.927 0 0-5.9784 2.3087 3.0919 7.1822 54.927 0 0-4.1015 6.6576 3.0919 7.1822 54.927 0 0 7.6544-1.5968 3.0919 7.1822 54.927 0 0 4.1015-6.6576 3.0919 7.1822 54.927 0 0-1.676-0.7119zm-21.467 14.083a3.0919 7.1822 54.927 0 0-5.9792 2.3087 3.0919 7.1822 54.927 0 0-4.1015 6.6576 3.0919 7.1822 54.927 0 0 7.6552-1.5968 3.0919 7.1822 54.927 0 0 4.1007-6.6568 3.0919 7.1822 54.927 0 0-1.6752-0.7127zm-21.126 13.719a3.0919 7.1822 54.927 0 0-5.9784 2.3087 3.0919 7.1822 54.927 0 0-4.1015 6.6576 3.0919 7.1822 54.927 0 0 7.6544-1.5968 3.0919 7.1822 54.927 0 0 4.1015-6.6576 3.0919 7.1822 54.927 0 0-1.676-0.71188z"
         style="paint-order:markers fill stroke"
         id="path14" />
    </g>
  </g>
  <path
     d="M 77.376964,72.818437 C 15.950191,46.025201 91.027,3.846 91.027,3.846 c 0,0 -102.037274,56.583437 -86.3460362,116.29244 L 27.223964,88.423437 c 4.5594,-5.3183 9.6149,-8.7895 18.373,-9.8364 z"
     fill="#ffffff"
     fill-opacity="0.99648"
     style="paint-order:markers fill stroke"
     id="path20"
     sodipodi:nodetypes="cccccc" />
  <path
     d="m 136.11947,106.13092 c 71.4647,53.69805 3.10171,87.64504 3.10171,87.64504 0,0 73.70721,-31.04056 52.15222,-117.540128 l -15.77693,24.541088 c -3.3523,4.4365 -4.246,4.5502 -9.4402,4.6687 z"
     fill="#ffffff"
     fill-opacity="0.99648"
     style="paint-order:markers fill stroke"
     id="path22"
     sodipodi:nodetypes="cccccc" />
</svg>
