<svg width="200mm" height="200mm" version="1.1" viewBox="0 0 200 200" xmlns="http://www.w3.org/2000/svg">
 <g transform="translate(1030.9 -430.08)">
  <g transform="matrix(.55751 .177 -.50764 .54684 2140.7 115.65)" fill="#fff" stroke-linecap="round" stroke-linejoin="round" style="paint-order:markers fill stroke;shape-inside:url(#rect7682);white-space:pre" aria-label="1000×">
   <path d="m-3823.3 2028.8v-5.088h8.864v23.36h-5.696v-18.272z"/>
   <path d="m-3810.7 2035.1q0-5.504 2.112-8.672 2.144-3.168 6.88-3.168t6.848 3.168q2.144 3.168 2.144 8.672 0 5.568-2.144 8.736-2.112 3.168-6.848 3.168t-6.88-3.168q-2.112-3.168-2.112-8.736zm12.608 0q0-3.232-0.704-4.96-0.704-1.76-2.912-1.76t-2.912 1.76q-0.704 1.728-0.704 4.96 0 2.176 0.256 3.616 0.256 1.408 1.024 2.304 0.8 0.864 2.336 0.864t2.304-0.864q0.8-0.896 1.056-2.304 0.256-1.44 0.256-3.616z"/>
   <path d="m-3789.8 2035.1q0-5.504 2.112-8.672 2.144-3.168 6.88-3.168t6.848 3.168q2.144 3.168 2.144 8.672 0 5.568-2.144 8.736-2.112 3.168-6.848 3.168t-6.88-3.168q-2.112-3.168-2.112-8.736zm12.608 0q0-3.232-0.704-4.96-0.704-1.76-2.912-1.76t-2.912 1.76q-0.704 1.728-0.704 4.96 0 2.176 0.256 3.616 0.256 1.408 1.024 2.304 0.8 0.864 2.336 0.864t2.304-0.864q0.8-0.896 1.056-2.304 0.256-1.44 0.256-3.616z"/>
   <path d="m-3768.9 2035.1q0-5.504 2.112-8.672 2.144-3.168 6.88-3.168t6.848 3.168q2.144 3.168 2.144 8.672 0 5.568-2.144 8.736-2.112 3.168-6.848 3.168t-6.88-3.168q-2.112-3.168-2.112-8.736zm12.608 0q0-3.232-0.704-4.96-0.704-1.76-2.912-1.76t-2.912 1.76q-0.704 1.728-0.704 4.96 0 2.176 0.256 3.616 0.256 1.408 1.024 2.304 0.8 0.864 2.336 0.864t2.304-0.864q0.8-0.896 1.056-2.304 0.256-1.44 0.256-3.616z"/>
   <path d="m-3734.9 2043.7-4.448-4.448-4.384 4.416-3.552-3.52 4.384-4.448-4.256-4.256 3.584-3.552 4.256 4.256 4.192-4.256 3.584 3.52-4.256 4.256 4.48 4.48z"/>
  </g>
  <path d="m-904.24 551.34c1.908-5.8063 0.63512-15.108-6.0506-9.9939" fill="none" stroke="#fff" stroke-linecap="round" stroke-linejoin="round" stroke-width="1.1875" style="paint-order:markers fill stroke"/>
  <g fill="#fff">
   <g>
    <path transform="matrix(.95312 .3026 -.45716 .88938 0 0)" d="m-568.23 691.76a5.1913 6.0738 0 0 1-5.1309 6.0734 5.1913 6.0738 0 0 1-5.2503-5.9321 5.1913 6.0738 0 0 1 5.0087-6.2114 5.1913 6.0738 0 0 1 5.3668 5.7876" style="paint-order:markers fill stroke"/>
    <path transform="matrix(.95312 .3026 -.45716 .88938 0 0)" d="m-583.62 732.8a2.5399 2.9716 0 0 1-2.5103 2.9714 2.5399 2.9716 0 0 1-2.5687-2.9023 2.5399 2.9716 0 0 1 2.4506-3.039 2.5399 2.9716 0 0 1 2.6257 2.8316" style="paint-order:markers fill stroke"/>
    <path transform="matrix(.95312 .3026 -.45716 .88938 0 0)" d="m-568.23 725.55a5.1913 6.0738 0 0 1-5.1309 6.0734 5.1913 6.0738 0 0 1-5.2503-5.9321 5.1913 6.0738 0 0 1 5.0087-6.2114 5.1913 6.0738 0 0 1 5.3668 5.7876" style="paint-order:markers fill stroke"/>
    <path transform="matrix(.95312 .3026 -.45716 .88938 0 0)" d="m-589.75 725.55a5.1913 6.0738 0 0 1-5.1309 6.0734 5.1913 6.0738 0 0 1-5.2503-5.9321 5.1913 6.0738 0 0 1 5.0087-6.2114 5.1913 6.0738 0 0 1 5.3668 5.7876" style="paint-order:markers fill stroke"/>
    <path transform="matrix(.95312 .3026 -.45716 .88938 0 0)" d="m-546.71 725.55a5.1913 6.0738 0 0 1-5.1309 6.0734 5.1913 6.0738 0 0 1-5.2503-5.9321 5.1913 6.0738 0 0 1 5.0087-6.2114 5.1913 6.0738 0 0 1 5.3668 5.7876" style="paint-order:markers fill stroke"/>
    <path transform="matrix(.95312 .3026 -.45716 .88938 0 0)" d="m-568.23 759.35a5.1913 6.0738 0 0 1-5.1309 6.0734 5.1913 6.0738 0 0 1-5.2503-5.9321 5.1913 6.0738 0 0 1 5.0087-6.2114 5.1913 6.0738 0 0 1 5.3668 5.7876" style="paint-order:markers fill stroke"/>
    <path transform="matrix(.95312 .3026 -.45716 .88938 0 0)" d="m-589.75 759.35a5.1913 6.0738 0 0 1-5.1309 6.0734 5.1913 6.0738 0 0 1-5.2503-5.9321 5.1913 6.0738 0 0 1 5.0087-6.2114 5.1913 6.0738 0 0 1 5.3668 5.7876" style="paint-order:markers fill stroke"/>
    <path transform="matrix(.95312 .3026 -.45716 .88938 0 0)" d="m-546.71 759.35a5.1913 6.0738 0 0 1-5.1309 6.0734 5.1913 6.0738 0 0 1-5.2503-5.9321 5.1913 6.0738 0 0 1 5.0087-6.2114 5.1913 6.0738 0 0 1 5.3668 5.7876" style="paint-order:markers fill stroke"/>
    <path transform="matrix(.95312 .3026 -.45716 .88938 0 0)" d="m-525.2 759.35a5.1913 6.0738 0 0 1-5.1309 6.0734 5.1913 6.0738 0 0 1-5.2503-5.9321 5.1913 6.0738 0 0 1 5.0087-6.2114 5.1913 6.0738 0 0 1 5.3668 5.7876" style="paint-order:markers fill stroke"/>
    <path transform="matrix(.95312 .3026 -.45716 .88938 0 0)" d="m-611.27 759.35a5.1913 6.0738 0 0 1-5.1309 6.0734 5.1913 6.0738 0 0 1-5.2503-5.9321 5.1913 6.0738 0 0 1 5.0087-6.2114 5.1913 6.0738 0 0 1 5.3668 5.7876" style="paint-order:markers fill stroke"/>
    <path transform="matrix(.95312 .3026 -.45716 .88938 0 0)" d="m-568.23 793.14a5.1913 6.0738 0 0 1-5.1309 6.0734 5.1913 6.0738 0 0 1-5.2503-5.9321 5.1913 6.0738 0 0 1 5.0087-6.2114 5.1913 6.0738 0 0 1 5.3668 5.7876" style="paint-order:markers fill stroke"/>
    <path transform="matrix(.95312 .3026 -.45716 .88938 0 0)" d="m-589.75 793.14a5.1913 6.0738 0 0 1-5.1309 6.0734 5.1913 6.0738 0 0 1-5.2503-5.9321 5.1913 6.0738 0 0 1 5.0087-6.2114 5.1913 6.0738 0 0 1 5.3668 5.7876" style="paint-order:markers fill stroke"/>
    <path transform="matrix(.95312 .3026 -.45716 .88938 0 0)" d="m-546.71 793.14a5.1913 6.0738 0 0 1-5.1309 6.0734 5.1913 6.0738 0 0 1-5.2503-5.9321 5.1913 6.0738 0 0 1 5.0087-6.2114 5.1913 6.0738 0 0 1 5.3668 5.7876" style="paint-order:markers fill stroke"/>
    <path transform="matrix(.95312 .3026 -.45716 .88938 0 0)" d="m-525.2 793.14a5.1913 6.0738 0 0 1-5.1309 6.0734 5.1913 6.0738 0 0 1-5.2503-5.9321 5.1913 6.0738 0 0 1 5.0087-6.2114 5.1913 6.0738 0 0 1 5.3668 5.7876" style="paint-order:markers fill stroke"/>
    <path transform="matrix(.95312 .3026 -.45716 .88938 0 0)" d="m-611.27 793.14a5.1913 6.0738 0 0 1-5.1309 6.0734 5.1913 6.0738 0 0 1-5.2503-5.9321 5.1913 6.0738 0 0 1 5.0087-6.2114 5.1913 6.0738 0 0 1 5.3668 5.7876" style="paint-order:markers fill stroke"/>
    <path transform="matrix(.95312 .3026 -.45716 .88938 0 0)" d="m-632.79 793.14a5.1913 6.0738 0 0 1-5.1309 6.0734 5.1913 6.0738 0 0 1-5.2503-5.9321 5.1913 6.0738 0 0 1 5.0087-6.2114 5.1913 6.0738 0 0 1 5.3668 5.7876" style="paint-order:markers fill stroke"/>
    <path transform="matrix(.95312 .3026 -.45716 .88938 0 0)" d="m-503.68 793.14a5.1913 6.0738 0 0 1-5.1309 6.0734 5.1913 6.0738 0 0 1-5.2503-5.9321 5.1913 6.0738 0 0 1 5.0087-6.2114 5.1913 6.0738 0 0 1 5.3668 5.7876" style="paint-order:markers fill stroke"/>
    <rect transform="matrix(.95312 .3026 -.45716 .88938 0 0)" x="-666.86" y="823.44" width="185.35" height="9.3407" ry="4.6703" style="paint-order:markers fill stroke"/>
    <path transform="matrix(.95312 .3026 -.45716 .88938 0 0)" d="m-579.25 708.66a5.1913 6.0738 0 0 1-5.1309 6.0734 5.1913 6.0738 0 0 1-5.2503-5.9321 5.1913 6.0738 0 0 1 5.0087-6.2114 5.1913 6.0738 0 0 1 5.3668 5.7876" style="paint-order:markers fill stroke"/>
    <path transform="matrix(.95312 .3026 -.45716 .88938 0 0)" d="m-557.73 708.66a5.1913 6.0738 0 0 1-5.1309 6.0734 5.1913 6.0738 0 0 1-5.2503-5.9321 5.1913 6.0738 0 0 1 5.0087-6.2114 5.1913 6.0738 0 0 1 5.3668 5.7876" style="paint-order:markers fill stroke"/>
    <path transform="matrix(.95312 .3026 -.45716 .88938 0 0)" d="m-579.25 742.45a5.1913 6.0738 0 0 1-5.1309 6.0734 5.1913 6.0738 0 0 1-5.2503-5.9321 5.1913 6.0738 0 0 1 5.0087-6.2114 5.1913 6.0738 0 0 1 5.3668 5.7876" style="paint-order:markers fill stroke"/>
    <path transform="matrix(.95312 .3026 -.45716 .88938 0 0)" d="m-557.73 742.45a5.1913 6.0738 0 0 1-5.1309 6.0734 5.1913 6.0738 0 0 1-5.2503-5.9321 5.1913 6.0738 0 0 1 5.0087-6.2114 5.1913 6.0738 0 0 1 5.3668 5.7876" style="paint-order:markers fill stroke"/>
    <path transform="matrix(.95312 .3026 -.45716 .88938 0 0)" d="m-579.25 776.25a5.1913 6.0738 0 0 1-5.1309 6.0734 5.1913 6.0738 0 0 1-5.2503-5.9321 5.1913 6.0738 0 0 1 5.0087-6.2114 5.1913 6.0738 0 0 1 5.3668 5.7876" style="paint-order:markers fill stroke"/>
    <path transform="matrix(.95312 .3026 -.45716 .88938 0 0)" d="m-557.73 776.25a5.1913 6.0738 0 0 1-5.1309 6.0734 5.1913 6.0738 0 0 1-5.2503-5.9321 5.1913 6.0738 0 0 1 5.0087-6.2114 5.1913 6.0738 0 0 1 5.3668 5.7876" style="paint-order:markers fill stroke"/>
    <path transform="matrix(.95312 .3026 -.45716 .88938 0 0)" d="m-536.21 742.45a5.1913 6.0738 0 0 1-5.1309 6.0734 5.1913 6.0738 0 0 1-5.2503-5.9321 5.1913 6.0738 0 0 1 5.0087-6.2114 5.1913 6.0738 0 0 1 5.3668 5.7876" style="paint-order:markers fill stroke"/>
    <path transform="matrix(.95312 .3026 -.45716 .88938 0 0)" d="m-600.77 742.45a5.1913 6.0738 0 0 1-5.1309 6.0734 5.1913 6.0738 0 0 1-5.2503-5.9321 5.1913 6.0738 0 0 1 5.0087-6.2114 5.1913 6.0738 0 0 1 5.3668 5.7876" style="paint-order:markers fill stroke"/>
    <path transform="matrix(.95312 .3026 -.45716 .88938 0 0)" d="m-600.77 776.25a5.1913 6.0738 0 0 1-5.1309 6.0734 5.1913 6.0738 0 0 1-5.2503-5.9321 5.1913 6.0738 0 0 1 5.0087-6.2114 5.1913 6.0738 0 0 1 5.3668 5.7876" style="paint-order:markers fill stroke"/>
    <path transform="matrix(.95312 .3026 -.45716 .88938 0 0)" d="m-622.29 776.25a5.1913 6.0738 0 0 1-5.1309 6.0734 5.1913 6.0738 0 0 1-5.2503-5.9321 5.1913 6.0738 0 0 1 5.0087-6.2114 5.1913 6.0738 0 0 1 5.3668 5.7876" style="paint-order:markers fill stroke"/>
    <path transform="matrix(.95312 .3026 -.45716 .88938 0 0)" d="m-536.21 776.25a5.1913 6.0738 0 0 1-5.1309 6.0734 5.1913 6.0738 0 0 1-5.2503-5.9321 5.1913 6.0738 0 0 1 5.0087-6.2114 5.1913 6.0738 0 0 1 5.3668 5.7876" style="paint-order:markers fill stroke"/>
    <path transform="matrix(.95312 .3026 -.45716 .88938 0 0)" d="m-514.69 776.25a5.1913 6.0738 0 0 1-5.1309 6.0734 5.1913 6.0738 0 0 1-5.2503-5.9321 5.1913 6.0738 0 0 1 5.0087-6.2114 5.1913 6.0738 0 0 1 5.3668 5.7876" style="paint-order:markers fill stroke"/>
    <path transform="matrix(.95312 .3026 -.45716 .88938 0 0)" d="m-579.25 810.04a5.1913 6.0738 0 0 1-5.1309 6.0734 5.1913 6.0738 0 0 1-5.2503-5.9321 5.1913 6.0738 0 0 1 5.0087-6.2114 5.1913 6.0738 0 0 1 5.3668 5.7876" style="paint-order:markers fill stroke"/>
    <path transform="matrix(.95312 .3026 -.45716 .88938 0 0)" d="m-557.73 810.04a5.1913 6.0738 0 0 1-5.1309 6.0734 5.1913 6.0738 0 0 1-5.2503-5.9321 5.1913 6.0738 0 0 1 5.0087-6.2114 5.1913 6.0738 0 0 1 5.3668 5.7876" style="paint-order:markers fill stroke"/>
    <path transform="matrix(.95312 .3026 -.45716 .88938 0 0)" d="m-600.77 810.04a5.1913 6.0738 0 0 1-5.1309 6.0734 5.1913 6.0738 0 0 1-5.2503-5.9321 5.1913 6.0738 0 0 1 5.0087-6.2114 5.1913 6.0738 0 0 1 5.3668 5.7876" style="paint-order:markers fill stroke"/>
    <path transform="matrix(.95312 .3026 -.45716 .88938 0 0)" d="m-622.29 810.04a5.1913 6.0738 0 0 1-5.1309 6.0734 5.1913 6.0738 0 0 1-5.2503-5.9321 5.1913 6.0738 0 0 1 5.0087-6.2114 5.1913 6.0738 0 0 1 5.3668 5.7876" style="paint-order:markers fill stroke"/>
    <path transform="matrix(.95312 .3026 -.45716 .88938 0 0)" d="m-536.21 810.04a5.1913 6.0738 0 0 1-5.1309 6.0734 5.1913 6.0738 0 0 1-5.2503-5.9321 5.1913 6.0738 0 0 1 5.0087-6.2114 5.1913 6.0738 0 0 1 5.3668 5.7876" style="paint-order:markers fill stroke"/>
    <path transform="matrix(.95312 .3026 -.45716 .88938 0 0)" d="m-514.69 810.04a5.1913 6.0738 0 0 1-5.1309 6.0734 5.1913 6.0738 0 0 1-5.2503-5.9321 5.1913 6.0738 0 0 1 5.0087-6.2114 5.1913 6.0738 0 0 1 5.3668 5.7876" style="paint-order:markers fill stroke"/>
    <path transform="matrix(.95312 .3026 -.45716 .88938 0 0)" d="m-493.18 810.04a5.1913 6.0738 0 0 1-5.1309 6.0734 5.1913 6.0738 0 0 1-5.2503-5.9321 5.1913 6.0738 0 0 1 5.0087-6.2114 5.1913 6.0738 0 0 1 5.3668 5.7876" style="paint-order:markers fill stroke"/>
    <path transform="matrix(.95312 .3026 -.45716 .88938 0 0)" d="m-643.81 810.04a5.1913 6.0738 0 0 1-5.1309 6.0734 5.1913 6.0738 0 0 1-5.2503-5.9321 5.1913 6.0738 0 0 1 5.0087-6.2114 5.1913 6.0738 0 0 1 5.3668 5.7876" style="paint-order:markers fill stroke"/>
    <path transform="matrix(.95312 .3026 -.45716 .88938 0 0)" d="m-559.69 760.27a2.5399 2.9716 0 0 1-2.5103 2.9714 2.5399 2.9716 0 0 1-2.5687-2.9023 2.5399 2.9716 0 0 1 2.4506-3.039 2.5399 2.9716 0 0 1 2.6257 2.8316" style="paint-order:markers fill stroke"/>
    <path transform="matrix(.95312 .3026 -.45716 .88938 0 0)" d="m-608.4 802.16a2.5399 2.9716 0 0 1-2.5103 2.9714 2.5399 2.9716 0 0 1-2.5687-2.9023 2.5399 2.9716 0 0 1 2.4506-3.039 2.5399 2.9716 0 0 1 2.6257 2.8316" style="paint-order:markers fill stroke"/>
    <path transform="matrix(.95312 .3026 -.45716 .88938 0 0)" d="m-567.82 804.25a2.5399 2.9716 0 0 1-2.5103 2.9714 2.5399 2.9716 0 0 1-2.5687-2.9023 2.5399 2.9716 0 0 1 2.4506-3.039 2.5399 2.9716 0 0 1 2.6257 2.8316" style="paint-order:markers fill stroke"/>
    <path transform="matrix(.95312 .3026 -.45716 .88938 0 0)" d="m-594.66 782.84a2.5399 2.9716 0 0 1-2.5103 2.9714 2.5399 2.9716 0 0 1-2.5687-2.9023 2.5399 2.9716 0 0 1 2.4506-3.039 2.5399 2.9716 0 0 1 2.6257 2.8316" style="paint-order:markers fill stroke"/>
    <path transform="matrix(.95312 .3026 -.45716 .88938 0 0)" d="m-596.55 750.44a2.5399 2.9716 0 0 1-2.5103 2.9714 2.5399 2.9716 0 0 1-2.5687-2.9023 2.5399 2.9716 0 0 1 2.4506-3.039 2.5399 2.9716 0 0 1 2.6257 2.8316" style="paint-order:markers fill stroke"/>
    <path transform="matrix(.95312 .3026 -.45716 .88938 0 0)" d="m-548.17 744.62a2.5399 2.9716 0 0 1-2.5103 2.9714 2.5399 2.9716 0 0 1-2.5687-2.9023 2.5399 2.9716 0 0 1 2.4506-3.039 2.5399 2.9716 0 0 1 2.6257 2.8316" style="paint-order:markers fill stroke"/>
   </g>
   <g stroke-linecap="round" stroke-linejoin="round">
    <g transform="matrix(.55751 .177 -.50764 .54684 2199.7 134.52)" style="paint-order:markers fill stroke;shape-inside:url(#rect7690);white-space:pre" aria-label="100×">
     <path d="m-3823.3 2028.8v-5.088h8.864v23.36h-5.696v-18.272z"/>
     <path d="m-3810.7 2035.1q0-5.504 2.112-8.672 2.144-3.168 6.88-3.168t6.848 3.168q2.144 3.168 2.144 8.672 0 5.568-2.144 8.736-2.112 3.168-6.848 3.168t-6.88-3.168q-2.112-3.168-2.112-8.736zm12.608 0q0-3.232-0.704-4.96-0.704-1.76-2.912-1.76t-2.912 1.76q-0.704 1.728-0.704 4.96 0 2.176 0.256 3.616 0.256 1.408 1.024 2.304 0.8 0.864 2.336 0.864t2.304-0.864q0.8-0.896 1.056-2.304 0.256-1.44 0.256-3.616z"/>
     <path d="m-3789.8 2035.1q0-5.504 2.112-8.672 2.144-3.168 6.88-3.168t6.848 3.168q2.144 3.168 2.144 8.672 0 5.568-2.144 8.736-2.112 3.168-6.848 3.168t-6.88-3.168q-2.112-3.168-2.112-8.736zm12.608 0q0-3.232-0.704-4.96-0.704-1.76-2.912-1.76t-2.912 1.76q-0.704 1.728-0.704 4.96 0 2.176 0.256 3.616 0.256 1.408 1.024 2.304 0.8 0.864 2.336 0.864t2.304-0.864q0.8-0.896 1.056-2.304 0.256-1.44 0.256-3.616z"/>
     <path d="m-3755.8 2043.7-4.448-4.448-4.384 4.416-3.552-3.52 4.384-4.448-4.256-4.256 3.584-3.552 4.256 4.256 4.192-4.256 3.584 3.52-4.256 4.256 4.48 4.48z"/>
    </g>
    <g transform="matrix(.55751 .177 -.50764 .54684 2249 150.19)" style="paint-order:markers fill stroke;shape-inside:url(#rect7746);white-space:pre" aria-label="10×">
     <path d="m-3823.3 2028.8v-5.088h8.864v23.36h-5.696v-18.272z"/>
     <path d="m-3810.7 2035.1q0-5.504 2.112-8.672 2.144-3.168 6.88-3.168t6.848 3.168q2.144 3.168 2.144 8.672 0 5.568-2.144 8.736-2.112 3.168-6.848 3.168t-6.88-3.168q-2.112-3.168-2.112-8.736zm12.608 0q0-3.232-0.704-4.96-0.704-1.76-2.912-1.76t-2.912 1.76q-0.704 1.728-0.704 4.96 0 2.176 0.256 3.616 0.256 1.408 1.024 2.304 0.8 0.864 2.336 0.864t2.304-0.864q0.8-0.896 1.056-2.304 0.256-1.44 0.256-3.616z"/>
     <path d="m-3776.6 2043.7-4.448-4.448-4.384 4.416-3.552-3.52 4.384-4.448-4.256-4.256 3.584-3.552 4.256 4.256 4.192-4.256 3.584 3.52-4.256 4.256 4.48 4.48z"/>
    </g>
    <g transform="matrix(.55751 .177 -.50764 .54684 2288.4 162.93)" style="paint-order:markers fill stroke;shape-inside:url(#rect7772);white-space:pre" aria-label="1×">
     <path d="m-3823.3 2028.8v-5.088h8.864v23.36h-5.696v-18.272z"/>
     <path d="m-3797.5 2043.7-4.448-4.448-4.384 4.416-3.552-3.52 4.384-4.448-4.256-4.256 3.584-3.552 4.256 4.256 4.192-4.256 3.584 3.52-4.256 4.256 4.48 4.48z"/>
    </g>
   </g>
  </g>
  <g fill="none" stroke="#fff" stroke-linecap="round" stroke-linejoin="round" stroke-width="1.1875">
   <path d="m-947.49 526.7c3.2899-4.861 10.744-10.713 14.453-10.095" style="paint-order:markers fill stroke"/>
   <path d="m-882.99 505.39c1.908-5.8063 0.63511-15.108-6.0506-9.9939" style="paint-order:markers fill stroke"/>
   <path d="m-864.77 493.83c0.73548-5.6905-0.68397-15.339-7.3697-10.225" style="paint-order:markers fill stroke"/>
   <path d="m-878.24 463.14c-5.6738-1.5822-12.674 6.3846-15.45 11.232" style="paint-order:markers fill stroke"/>
   <path d="m-899.66 475.97c-5.6738-1.5822-12.674 6.3846-15.45 11.232" style="paint-order:markers fill stroke"/>
   <path d="m-911.09 503.65c-5.6738-1.5822-12.674 6.3846-15.45 11.232" style="paint-order:markers fill stroke"/>
   <path d="m-888.01 531.01c-5.6738-1.5822-12.532 8.8544-15.308 13.702" style="paint-order:markers fill stroke"/>
  </g>
 </g>
</svg>
