<svg width="200mm" height="200mm" version="1.1" viewBox="0 0 200 200" xmlns="http://www.w3.org/2000/svg">
 <g transform="translate(-1693.7 125.64)" fill="none" stroke="#fff">
  <g transform="matrix(.34508 0 0 .34508 1379.7 -6.4544)" stroke-width="17.131">
   <path d="m1236.4-189.54c9.8124-8.9064 21.811-15.05 34.777-18.13v-14.368c0-6.6216-10.768-13.243-23.934-14.694l-6.3133-0.70527c-13.166-1.456-23.934-11.142-23.934-22.717 0-11.575 10.836-20.069 24.077-20.069h60.196c13.248-0.26846 24.418 9.8215 25.492 23.03l0.3868 65.473c0 61.459-48.407 104.64-109.5 104.64-54.822 0.80765-101.57-39.542-108.79-93.892v-21.193"/>
   <path d="m1130.1-220.19c-12.424-0.91912-21.807-11.643-21.069-24.078v-42.136c-1.5471-11.636 6.6227-22.326 18.257-23.878 11.637-1.5516 22.328 6.622 23.879 18.258 0.2502 1.8656 0.2502 3.7555 0 5.6203v42.136c0.728 12.436-8.6453 23.159-21.067 24.078z"/>
   <path d="m1180.9-227.03c-19.998 7.3865-30.079-11.643-29.342-24.078v-42.136c-1.5471-11.636 6.6227-22.326 18.257-23.879 11.637-1.5516 22.682 7.014 24.234 18.65"/>
   <path d="m1194.1-271.35v-32.009c-1.5471-11.636 6.6227-22.326 18.257-23.878 11.635-1.5516 24.066 9.8183 24.066 22.761 0-8.6846 8.7704-22.761 20.514-22.761 11.644 0 21.811 11.342 21.811 23.046"/>
  </g>
  <g transform="matrix(.62235 -.35931 .35931 .62235 850.64 648.13)" stroke-width="7.9375">
   <path d="m1565.6-190.52 4.9586-61.108c-0.9476-13.676-18.677-13.831-19.911-0.0729l-6.6676 47.829c-0.8226 6.0034-3.5205 10.916-5.9676 10.916-2.4462 0-5.0837-4.9179-5.8573-10.93l-6.1469-47.774c-2.2575-14.541-20.495-11.908-19.388 3e-3l6.962 57.94"/>
   <path d="m1568.4-138.31c0 27.199-22.096 46.506-49.289 46.506"/>
   <path d="m1471.7-132.75c3.1469 23.694 23.526 41.272 47.416 40.941 26.634 0 49.289-18.826 49.29-46.166l-1.8086-30.545c-0.4895-6.0448-5.6033-10.665-11.668-10.541h-27.551c-6.0614 0-11.02 3.8875-11.02 9.1856s4.9285 9.7311 10.953 10.398l2.8907 0.32177c6.025 0.66435 10.955 3.6946 10.955 6.7253v6.582c-5.9365 1.4162-11.429 4.2263-15.92 8.304"/>
   <path d="m1508.1-139.31c0 3.466-1.8482 6.6674-4.8482 8.3976-3.0011 1.7302-6.6977 1.7324-9.6988 0-2.9999-1.7324-4.8482-4.9344-4.8482-8.3976v-43.972c0-3.4659 1.8483-6.6674 4.8482-8.3976 3.0011-1.7302 6.6977-1.7324 9.6988 0 3 1.7324 4.8482 4.9344 4.8482 8.4004z" paintOrder="normal"/>
   <path d="m1488.7-152.47c0 3.477-1.8495 6.6867-4.8493 8.4252-3.0011 1.7384-6.6977 1.7379-9.6978 0-3.001-1.7379-4.8493-4.9482-4.8493-8.4252v-21.867c0-3.477 1.8483-6.6867 4.8493-8.4252 3.0001-1.7379 6.6977-1.7379 9.6978 0 2.9998 1.7379 4.8493 4.9482 4.8493 8.4252z" paintOrder="normal"/>
  </g>
  <path d="m1862.9-34.594c2.651-3.3498 2.0867-8.2145-1.2628-10.867-3.349-2.6516-8.2144-2.087-10.866 1.2626-0.425 0.53714-0.7758 1.1285-1.0226 1.7712l-21.297 35.762-1.0421 1.8048 10.909-18.05c2.6509-3.3498 2.0867-8.2145-1.2623-10.866-3.3495-2.6521-8.2143-2.087-10.866 1.2626-0.4247 0.53709-0.7757 1.1285-1.0225 1.7712l-14.568 24.471-10.947 19.192c-8.2967 16.231-0.2222 34.348 16.005 42.643 9.3815 4.7451 20.177 5.8866 30.344 3.2087 8.9205-2.6671 31.769-10.837 31.769-10.837 5.1397-2.492 6.6414-10.063 3.5994-9.7417l-23.83-1.9935 5.8428-10.286-5.8428 10.286 5.8428-10.286 24.006-41.414c2.6511-3.3498 2.0867-8.2145-1.262-10.866-3.3498-2.652-8.2143-2.087-10.867 1.2622-0.425 0.53716-0.776 1.1285-1.0227 1.7712l-7.8459 13.176-12.002 19.977 25.004-41.703c2.6509-3.3498 2.0873-8.2141-1.2623-10.866-3.3494-2.6522-8.2143-2.087-10.866 1.2626-0.4247 0.53717-0.7757 1.1285-1.0224 1.7712l-22.741 38.61" stroke-width="5.2918"/>
 </g>
</svg>
