<svg width="200mm" height="200mm" version="1.1" viewBox="0 0 200 200" xmlns="http://www.w3.org/2000/svg">
 <g transform="translate(-908.87 -351.41)">
  <rect x="929.9" y="421.43" width="154.09" height="95.181" ry="8.0347" fill="none" stroke="#fff" stroke-width="4.2718" style="paint-order:markers fill stroke"/>
  <path d="m1099.2 453.1c3.697 0 6.673 2.9762 6.673 6.6731v13.346c0 3.6969-2.976 6.6731-6.673 6.6731-3.6969 0-8.6137-2.9762-8.6137-6.6731v-13.346c0-3.6969 4.9168-6.6731 8.6137-6.6731z" fill="#fff" fill-opacity=".99648" style="paint-order:markers fill stroke"/>
  <g transform="matrix(1.0679 0 0 1.0679 -65.433 -21.267)">
   <path d="m1089.4 394.14h0.6352v51.514h-0.6352z" color="#000000" fill="#f55" fill-opacity=".99648" stroke-width="2.8109" style="-inkscape-stroke:none;paint-order:markers fill stroke"/>
   <path d="m1087.9 392.73v54.324h3.4453v-54.324z" color="#000000" fill="#fff" style="-inkscape-stroke:none;paint-order:markers fill stroke"/>
  </g>
  <g fill="#fff" fill-opacity=".99648" stroke-width="19.663" style="paint-order:markers fill stroke" aria-label="100x">
   <path d="m938.49 385.66v-10.005h17.43v45.934h-11.2v-35.929z"/>
   <path d="m963.28 397.99q0-10.823 4.1529-17.052 4.2158-6.2294 13.528-6.2294 9.3126 0 13.466 6.2294 4.2158 6.2294 4.2158 17.052 0 10.949-4.2158 17.178-4.1529 6.2294-13.466 6.2294-9.3126 0-13.528-6.2294-4.1529-6.2294-4.1529-17.178zm24.792 0q0-6.3552-1.3843-9.7531-1.3843-3.4608-5.726-3.4608-4.3417 0-5.726 3.4608-1.3843 3.3978-1.3843 9.7531 0 4.2788 0.50338 7.1103 0.50339 2.7686 2.0135 4.5305 1.5731 1.6989 4.5934 1.6989 3.0203 0 4.5304-1.6989 1.5731-1.7618 2.0765-4.5305 0.50339-2.8315 0.50339-7.1103z"/>
   <path d="m1004.3 397.99q0-10.823 4.1529-17.052 4.2158-6.2294 13.528-6.2294t13.466 6.2294q4.2158 6.2294 4.2158 17.052 0 10.949-4.2158 17.178-4.153 6.2294-13.466 6.2294t-13.528-6.2294q-4.1529-6.2294-4.1529-17.178zm24.792 0q0-6.3552-1.3843-9.7531-1.3843-3.4608-5.726-3.4608-4.3416 0-5.726 3.4608-1.3843 3.3978-1.3843 9.7531 0 4.2788 0.5034 7.1103 0.5034 2.7686 2.0136 4.5305 1.573 1.6989 4.5933 1.6989t4.5305-1.6989q1.5731-1.7618 2.0765-4.5305 0.5033-2.8315 0.5033-7.1103z"/>
   <path d="m1067.2 421.59-6.7328-9.7531-5.6631 9.7531h-11.641l11.578-17.933-11.892-17.178h12.081l6.7328 9.6901 5.663-9.6901h11.641l-11.767 17.681 12.081 17.43z"/>
  </g>
  <g fill="#fff" fill-opacity=".99648">
   <circle cx="1098.3" cy="398.15" r="10.598" style="paint-order:markers fill stroke"/>
   <rect x="938.49" y="431.58" width="40.117" height="74.877" ry="9.8276" style="paint-order:markers fill stroke"/>
   <rect x="986.88" y="431.58" width="40.117" height="74.877" ry="9.8276" style="paint-order:markers fill stroke"/>
   <rect x="1035.3" y="431.58" width="40.117" height="74.877" ry="9.8276" style="paint-order:markers fill stroke"/>
   <path d="m915.54 453.1c-3.697 0-6.673 2.9762-6.673 6.6731v13.346c0 3.6969 2.976 6.6731 6.673 6.6731 3.6969 0 8.6137-2.9762 8.6137-6.6731v-13.346c0-3.6969-4.9168-6.6731-8.6137-6.6731z" style="paint-order:markers fill stroke"/>
  </g>
 </g>
</svg>
