<svg width="200mm" height="200mm" version="1.1" viewBox="0 0 200 200" xmlns="http://www.w3.org/2000/svg">
 <g transform="translate(-1973.3 325.69)" fill="#fff">
  <g transform="matrix(.95258 -.78053 .78053 .95258 2206.1 -71.706)">
   <path d="m6.3773-234.64c-0.93258-0.769-2.1296-1.2298-3.4383-1.2298l-49.323-3.1e-4c-2.9911 0-5.3991 2.4084-5.3991 5.3995l7.9e-5 73.37c0 2.9911 2.4078 5.3992 5.3989 5.3992l6.3323 2e-4c-2.8595-0.79416-4.5391-3.7256-3.7693-6.5985l18.99-70.871c0.77416-2.8892 3.7234-4.5919 6.6126-3.8177l26.556 7.1157 1.18e-5 -4.5985c0-1.6825-0.76165-3.1806-1.9607-4.1694z" fill="none" stroke="#fff" stroke-width="2.2121" style="paint-order:markers fill stroke"/>
   <g transform="matrix(1.1163 -1.0729e-8 1.0729e-8 1.1163 -44.047 -214.18)" fill="#fff">
    <path d="m13.494 0.45319c-0.92608-0.29093-1.9823-0.45314-3.1961-0.45314-6.7921 0-12.128 5.0001-9.7031 15 0.97517 4.0197 3.3627 7.2308 6.2459 10.284z"/>
   </g>
   <g transform="matrix(.344 0 0 .344 -87.748 -237.29)" fill="#fff">
    <path d="m136.4 27.13c0.97-5 2.911-10 9.702-10 6.792 0 12.128 5 9.703 15-2.426 10-13.584 15-19.405 25-5.821-10-16.979-15-19.405-25-2.4254-10 2.9109-15 9.703-15 6.791 0 8.732 5 9.702 10z"/>
   </g>
  </g>
  <g transform="matrix(1.1221 -.50739 .50739 1.1221 2104.9 -4.9473)">
   <path d="m70.981-235.34c-0.7084-0.34036-1.5036-0.53084-2.3449-0.53084l-49.322 8e-5c-2.9911 0-5.3992 2.408-5.3992 5.3991l-7e-5 73.371c0 2.9911 2.408 5.3992 5.3991 5.3992l8.1262 4e-5c-2.6657-0.91554-4.1944-3.7347-3.4534-6.5l18.99-70.87c0.77416-2.8892 3.7233-4.5922 6.6125-3.818l24.446 6.5504-7.9e-5 -4.1322c0-2.1499-1.2439-3.9985-3.0542-4.8683z" fill="none" stroke="#fff" stroke-width="2.2121" style="paint-order:markers fill stroke"/>
   <g transform="matrix(.344 0 0 .344 17.925 -231.81)" fill="#fff">
    <path d="m20 0c-4.731 0-8.571 4.032-8.571 9 0.041 3.126 1.654 5.768 3.333 8.281-1.871-1.416-3.951-2.272-6.1906-2.281-4.7314 0-8.5714 4.032-8.5714 9s3.84 9 8.5714 9c3.8326-0.064 6.8986-2.746 9.9106-5-0.539 6.733-1.635 10.514-8.006 12h19.048c-6.371-1.486-7.467-5.267-8.006-12 2.977 2.552 6.1 4.717 9.911 5 4.731 0 8.571-4.032 8.571-9s-3.84-9-8.571-9c-2.297 0-4.281 1.057-6.191 2.281 1.9-2.487 3.151-5.17 3.333-8.281 0-4.968-3.84-9-8.571-9z"/>
   </g>
   <g transform="matrix(1.1631 0 0 1.1631 20.713 -215.12)" fill="#fff">
    <path d="m15.58 1.2894c-2.4868 1.576-4.151 4.4404-4.151 7.7108 0.01953 1.4889 0.39631 2.8675 0.96633 4.1751zm-3.8327 14.303c-1.0164-0.37851-2.0767-0.58805-3.1759-0.59247-4.7314 0-8.5717 4.0318-8.5717 8.9998 0 4.4477 3.078 8.1447 7.1178 8.8703z"/>
   </g>
  </g>
  <g transform="matrix(1.2152 -.19967 .19967 1.2152 1986.2 12.019)">
   <path d="m135.17-235.69c-0.26866-0.0408-0.54395-0.0624-0.82437-0.0624l-49.322 1.1e-4c-2.9911 0-5.3991 2.4082-5.3991 5.3994l-1.86e-4 73.37c0 2.9911 2.4082 5.3995 5.3993 5.3995l9.8337-4e-5 -1.998-0.53529c-2.8892-0.77416-4.592-3.7231-3.8178-6.6123l18.989-70.871c0.77416-2.8892 3.7235-4.5919 6.6127-3.8177l19.481 5.2197c1.5878-0.84685 3.5608-0.87721 5.2404 0.0925l0.38016 0.21947-3e-4 -2.4652c0-2.7107-1.9774-4.9424-4.5745-5.337z" fill="none" stroke="#fff" stroke-width="2.2121" style="paint-order:markers fill stroke"/>
   <g transform="matrix(1.2278 0 0 1.2278 85.126 -216.41)" fill="#fff">
    <path d="m12.309 12.935c-3.0778 2.9647-6.9923 5.1316-12.309 7.0648 3.6751 1.3364 6.6796 2.7849 9.2017 4.531z"/>
   </g>
   <g transform="matrix(.344 0 0 .344 83.57 -231.81)" fill="#fff">
    <path d="m20 0c4 11 9 16 20 20-11 4-16 9-20 20-4-11-9-16-20-20 11-4 16-9 20-20z"/>
   </g>
  </g>
  <g transform="matrix(1.2255 .12166 -.12166 1.2255 1865.5 -23.953)">
   <path d="m150.17-235.72c-2.7292 0.27551-4.8457 2.5672-4.8457 5.3714l3.8e-4 73.371c0 2.9911 2.408 5.3989 5.3991 5.3989l18.903-9e-5 -15.434-4.1353c-2.8892-0.77416-4.5919-3.7233-3.8178-6.6125l18.99-70.87c0.27213-1.0156 0.81369-1.884 1.5263-2.5503l-20.168-3.1e-4c-0.18695 0-0.37165 9e-3 -0.5536 0.0278zm30.537-0.0277 24.738 6.6283 3e-5 -1.2292c0-2.9911-2.408-5.3989-5.3991-5.3989z" fill="none" stroke="#fff" stroke-width="2.2121" style="paint-order:markers fill stroke"/>
   <g transform="matrix(1.2867 0 0 1.2867 149.66 -219.4)" fill="#fff">
    <path d="m9.9003 9.507c-3.5431 2.709-6.6415 5.3881-7.3733 9.2431-0.84754 4.464 0.18392 7.5337 2.3979 9.3252z"/>
   </g>
   <g transform="matrix(.344 0 0 .344 148.12 -232.89)" fill="#fff">
    <path d="m9.9958 40c7.2112-1.603 7.9872-5.826 8.5312-13.594-1.253 2.075-3.531 3.607-7.25 3.594-6.1124-0.021-10.207-3.576-8.75-11.25 1.4688-7.737 12.469-10.737 17.469-18.75 5 8.0128 16 11.013 17.469 18.75 1.456 7.674-2.469 11.228-8.75 11.25-3.719 0.013-5.997-1.519-7.25-3.594 0.544 7.768 1.319 11.991 8.531 13.594h-20z"/>
   </g>
  </g>
  <g transform="matrix(1.1523 .4347 -.4347 1.1523 1758.1 -115.3)">
   <path d="m216.43-235.87h49.322c2.9911 0 5.3992 2.408 5.3992 5.3991v73.371c0 2.9911-2.408 5.3992-5.3992 5.3992h-49.322c-2.9911 0-5.3991-2.408-5.3991-5.3992v-73.371c0-2.9911 2.408-5.3991 5.3991-5.3991z" fill="none" stroke="#fff" stroke-width="2.2121" style="paint-order:markers fill stroke"/>
   <g transform="matrix(1.1163 -1.0729e-8 1.0729e-8 1.1163 218.77 -214.18)" fill="#fff">
    <path d="M 20,10 C 20.97,5 22.911,0 29.702,0 36.494,0 41.83,5 39.405,15 36.979,25 25.821,30 20,40 14.179,30 3.021,25 0.595,15 -1.8304,5 3.5059,0 10.298,0 17.089,0 19.03,5 20,10 Z"/>
   </g>
   <g transform="matrix(.344 0 0 .344 175.07 -237.29)" fill="#fff">
    <path d="m136.4 27.13c0.97-5 2.911-10 9.702-10 6.792 0 12.128 5 9.703 15-2.426 10-13.584 15-19.405 25-5.821-10-16.979-15-19.405-25-2.4254-10 2.9109-15 9.703-15 6.791 0 8.732 5 9.702 10z"/>
   </g>
  </g>
 </g>
</svg>
